<svg width="50" height="33" viewBox="0 0 50 33" fill="none" xmlns="http://www.w3.org/2000/svg">
<rect y="0.5" width="32" height="32" rx="16" fill="white"/>
<path d="M10 7.5L13 4.5L16 7.5L13 10.5L10 7.5ZM19 4.5L22 7.5L19 10.5L16 7.5L19 4.5ZM22 25.5L19 28.5L16 25.5L19 22.5L22 25.5ZM13 28.5L10 25.5L13 22.5L16 25.5L13 28.5ZM4 13.5L7 10.5L10 13.5L7 16.5L4 13.5ZM25 10.5L28 13.5L25 16.5L22 13.5L25 10.5ZM28 19.5L25 22.5L22 19.5L25 16.5L28 19.5ZM7 22.5L4 19.5L7 16.5L10 19.5L7 22.5Z" fill="#E8E8E8"/>
<path d="M10 10.5H4V7.5L10 10.5ZM22 10.5V4.5H25L22 10.5ZM22 22.5H28V25.5L22 22.5ZM10 22.5V28.5H7L10 22.5Z" fill="#D19275"/>
<path d="M10 10.5H16V16.5H10V10.5ZM12.2 14.2C12.1395 14.4363 12.1338 14.6833 12.1834 14.9221C12.233 15.1609 12.3365 15.3853 12.4861 15.5779C12.6356 15.7706 12.8273 15.9266 13.0463 16.0338C13.2654 16.1411 13.5061 16.1969 13.75 16.1969C13.9939 16.1969 14.2346 16.1411 14.4537 16.0338C14.6727 15.9266 14.8644 15.7706 15.0139 15.5779C15.1635 15.3853 15.267 15.1609 15.3166 14.9221C15.3662 14.6833 15.3605 14.4363 15.3 14.2C15.3605 13.9637 15.3662 13.7167 15.3166 13.4779C15.267 13.2391 15.1635 13.0147 15.0139 12.8221C14.8644 12.6294 14.6727 12.4734 14.4537 12.3662C14.2346 12.2589 13.9939 12.2031 13.75 12.2031C13.5061 12.2031 13.2654 12.2589 13.0463 12.3662C12.8273 12.4734 12.6356 12.6294 12.4861 12.8221C12.3365 13.0147 12.233 13.2391 12.1834 13.4779C12.1338 13.7167 12.1395 13.9637 12.2 14.2ZM22 10.5V16.5H16V10.5H22ZM16.7 14.2C16.6395 14.4363 16.6338 14.6833 16.6834 14.9221C16.733 15.1609 16.8365 15.3853 16.9861 15.5779C17.1356 15.7706 17.3273 15.9266 17.5463 16.0338C17.7654 16.1411 18.0061 16.1969 18.25 16.1969C18.4939 16.1969 18.7346 16.1411 18.9537 16.0338C19.1727 15.9266 19.3644 15.7706 19.5139 15.5779C19.6635 15.3853 19.767 15.1609 19.8166 14.9221C19.8662 14.6833 19.8605 14.4363 19.8 14.2C19.8605 13.9637 19.8662 13.7167 19.8166 13.4779C19.767 13.2391 19.6635 13.0147 19.5139 12.8221C19.3644 12.6294 19.1727 12.4734 18.9537 12.3662C18.7346 12.2589 18.4939 12.2031 18.25 12.2031C18.0061 12.2031 17.7654 12.2589 17.5463 12.3662C17.3273 12.4734 17.1356 12.6294 16.9861 12.8221C16.8365 13.0147 16.733 13.2391 16.6834 13.4779C16.6338 13.7167 16.6395 13.9637 16.7 14.2ZM22 22.5H16V16.5H22V22.5ZM16.7 18.8C16.6395 19.0363 16.6338 19.2833 16.6834 19.5221C16.733 19.7609 16.8365 19.9853 16.9861 20.1779C17.1356 20.3706 17.3273 20.5266 17.5463 20.6338C17.7654 20.7411 18.0061 20.7969 18.25 20.7969C18.4939 20.7969 18.7346 20.7411 18.9537 20.6338C19.1727 20.5266 19.3644 20.3706 19.5139 20.1779C19.6635 19.9853 19.767 19.7609 19.8166 19.5221C19.8662 19.2833 19.8605 19.0363 19.8 18.8C19.8605 18.5637 19.8662 18.3167 19.8166 18.0779C19.767 17.8391 19.6635 17.6147 19.5139 17.4221C19.3644 17.2294 19.1727 17.0734 18.9537 16.9662C18.7346 16.8589 18.4939 16.8031 18.25 16.8031C18.0061 16.8031 17.7654 16.8589 17.5463 16.9662C17.3273 17.0734 17.1356 17.2294 16.9861 17.4221C16.8365 17.6147 16.733 17.8391 16.6834 18.0779C16.6338 18.3167 16.6395 18.5637 16.7 18.8ZM10 22.5V16.5H16V22.5H10ZM12.2 18.8C12.1395 19.0363 12.1338 19.2833 12.1834 19.5221C12.233 19.7609 12.3365 19.9853 12.4861 20.1779C12.6356 20.3706 12.8273 20.5266 13.0463 20.6338C13.2654 20.7411 13.5061 20.7969 13.75 20.7969C13.9939 20.7969 14.2346 20.7411 14.4537 20.6338C14.6727 20.5266 14.8644 20.3706 15.0139 20.1779C15.1635 19.9853 15.267 19.7609 15.3166 19.5221C15.3662 19.2833 15.3605 19.0363 15.3 18.8C15.3605 18.5637 15.3662 18.3167 15.3166 18.0779C15.267 17.8391 15.1635 17.6147 15.0139 17.4221C14.8644 17.2294 14.6727 17.0734 14.4537 16.9662C14.2346 16.8589 13.9939 16.8031 13.75 16.8031C13.5061 16.8031 13.2654 16.8589 13.0463 16.9662C12.8273 17.0734 12.6356 17.2294 12.4861 17.4221C12.3365 17.6147 12.233 17.8391 12.1834 18.0779C12.1338 18.3167 12.1395 18.5637 12.2 18.8Z" fill="#A85C38"/>
<g clip-path="url(#clip0_358_1197)">
<path d="M34 32.5C42.8366 32.5 50 25.3366 50 16.5C50 7.66344 42.8366 0.5 34 0.5C25.1634 0.5 18 7.66344 18 16.5C18 25.3366 25.1634 32.5 34 32.5Z" fill="#EEEEEE"/>
<path d="M34 7C35.3807 7 36.5 5.88071 36.5 4.5C36.5 3.11929 35.3807 2 34 2C32.6193 2 31.5 3.11929 31.5 4.5C31.5 5.88071 32.6193 7 34 7Z" fill="#3E0E32"/>
<path d="M34 13C35.3807 13 36.5 11.8807 36.5 10.5C36.5 9.11929 35.3807 8 34 8C32.6193 8 31.5 9.11929 31.5 10.5C31.5 11.8807 32.6193 13 34 13Z" fill="#97E7B2"/>
<path d="M28.804 10C30.1847 10 31.304 8.88071 31.304 7.5C31.304 6.11929 30.1847 5 28.804 5C27.4232 5 26.304 6.11929 26.304 7.5C26.304 8.88071 27.4232 10 28.804 10Z" fill="#3E0E29"/>
<path d="M23.6077 13C24.9884 13 26.1077 11.8807 26.1077 10.5C26.1077 9.11929 24.9884 8 23.6077 8C22.227 8 21.1077 9.11929 21.1077 10.5C21.1077 11.8807 22.227 13 23.6077 13Z" fill="#3CD3D3"/>
<path d="M28.804 16C30.1847 16 31.304 14.8807 31.304 13.5C31.304 12.1193 30.1847 11 28.804 11C27.4232 11 26.304 12.1193 26.304 13.5C26.304 14.8807 27.4232 16 28.804 16Z" fill="#217391"/>
<path d="M23.6077 19C24.9884 19 26.1077 17.8807 26.1077 16.5C26.1077 15.1193 24.9884 14 23.6077 14C22.227 14 21.1077 15.1193 21.1077 16.5C21.1077 17.8807 22.227 19 23.6077 19Z" fill="#97E7E7"/>
<path d="M23.6077 25C24.9884 25 26.1077 23.8807 26.1077 22.5C26.1077 21.1193 24.9884 20 23.6077 20C22.227 20 21.1077 21.1193 21.1077 22.5C21.1077 23.8807 22.227 25 23.6077 25Z" fill="#3E290E"/>
<path d="M28.804 22C30.1847 22 31.304 20.8807 31.304 19.5C31.304 18.1193 30.1847 17 28.804 17C27.4232 17 26.304 18.1193 26.304 19.5C26.304 20.8807 27.4232 22 28.804 22Z" fill="#6BD33C"/>
<path d="M28.804 28C30.1847 28 31.304 26.8807 31.304 25.5C31.304 24.1193 30.1847 23 28.804 23C27.4232 23 26.304 24.1193 26.304 25.5C26.304 26.8807 27.4232 28 28.804 28Z" fill="#0E113E"/>
<path d="M34 31C35.3807 31 36.5 29.8807 36.5 28.5C36.5 27.1193 35.3807 26 34 26C32.6193 26 31.5 27.1193 31.5 28.5C31.5 29.8807 32.6193 31 34 31Z" fill="#3E290E"/>
<path d="M34 25C35.3807 25 36.5 23.8807 36.5 22.5C36.5 21.1193 35.3807 20 34 20C32.6193 20 31.5 21.1193 31.5 22.5C31.5 23.8807 32.6193 25 34 25Z" fill="#6BD33C"/>
<path d="M39.196 28C40.5768 28 41.696 26.8807 41.696 25.5C41.696 24.1193 40.5768 23 39.196 23C37.8153 23 36.696 24.1193 36.696 25.5C36.696 26.8807 37.8153 28 39.196 28Z" fill="#97E7E7"/>
<path d="M44.3923 25C45.773 25 46.8923 23.8807 46.8923 22.5C46.8923 21.1193 45.773 20 44.3923 20C43.0116 20 41.8923 21.1193 41.8923 22.5C41.8923 23.8807 43.0116 25 44.3923 25Z" fill="#3CD3D3"/>
<path d="M39.196 22C40.5768 22 41.696 20.8807 41.696 19.5C41.696 18.1193 40.5768 17 39.196 17C37.8153 17 36.696 18.1193 36.696 19.5C36.696 20.8807 37.8153 22 39.196 22Z" fill="#217391"/>
<path d="M44.3923 19C45.773 19 46.8923 17.8807 46.8923 16.5C46.8923 15.1193 45.773 14 44.3923 14C43.0116 14 41.8923 15.1193 41.8923 16.5C41.8923 17.8807 43.0116 19 44.3923 19Z" fill="#3E0E29"/>
<path d="M44.3923 13C45.773 13 46.8923 11.8807 46.8923 10.5C46.8923 9.11929 45.773 8 44.3923 8C43.0116 8 41.8923 9.11929 41.8923 10.5C41.8923 11.8807 43.0116 13 44.3923 13Z" fill="#3E0E32"/>
<path d="M39.196 16C40.5768 16 41.696 14.8807 41.696 13.5C41.696 12.1193 40.5768 11 39.196 11C37.8153 11 36.696 12.1193 36.696 13.5C36.696 14.8807 37.8153 16 39.196 16Z" fill="#97E7B2"/>
<path d="M39.196 10C40.5768 10 41.696 8.88071 41.696 7.5C41.696 6.11929 40.5768 5 39.196 5C37.8153 5 36.696 6.11929 36.696 7.5C36.696 8.88071 37.8153 10 39.196 10Z" fill="#599121"/>
<path d="M34 19C35.3807 19 36.5 17.8807 36.5 16.5C36.5 15.1193 35.3807 14 34 14C32.6193 14 31.5 15.1193 31.5 16.5C31.5 17.8807 32.6193 19 34 19Z" fill="#223E0E"/>
</g>
<defs>
<clipPath id="clip0_358_1197">
<rect width="32" height="32" fill="white" transform="translate(18 0.5)"/>
</clipPath>
</defs>
</svg>
