<?xml version="1.0" standalone="no"?>
<!DOCTYPE svg PUBLIC "-//W3C//DTD SVG 20010904//EN"
 "http://www.w3.org/TR/2001/REC-SVG-20010904/DTD/svg10.dtd">
<svg version="1.0" xmlns="http://www.w3.org/2000/svg"
 width="150.000000pt" height="150.000000pt" viewBox="0 0 150.000000 150.000000"
 preserveAspectRatio="xMidYMid meet">

<g transform="translate(0.000000,150.000000) scale(0.100000,-0.100000)"
fill="#000000" stroke="none">
<path d="M621 1489 c-391 -70 -663 -437 -614 -828 44 -349 305 -610 654 -654
345 -43 677 163 797 495 23 64 27 92 30 223 3 116 0 165 -13 214 -67 258 -272
465 -531 536 -73 19 -250 27 -323 14z m658 -430 c28 -22 51 -44 51 -48 0 -4
-16 -13 -35 -20 -44 -16 -75 -56 -114 -152 -38 -92 -78 -133 -186 -190 -106
-56 -115 -64 -115 -110 0 -45 45 -104 97 -126 18 -7 33 -15 33 -16 0 -2 -29
-4 -65 -4 -56 0 -64 2 -53 14 10 12 3 22 -34 54 -26 22 -48 49 -50 62 -2 18
-11 23 -48 27 -36 5 -40 7 -20 12 16 3 8 6 -25 7 -60 1 -199 -33 -350 -87 -60
-21 -130 -40 -155 -41 l-45 -3 25 21 c18 14 21 21 10 21 -8 1 66 42 165 93
171 87 178 92 142 95 -38 3 -36 5 150 123 103 67 224 139 268 161 44 22 103
60 130 83 67 57 83 64 131 65 34 0 51 -8 93 -41z"/>
</g>
</svg>
