<svg width="48" height="49" viewBox="0 0 48 49" fill="none" xmlns="http://www.w3.org/2000/svg">
<circle cx="24" cy="24.5" r="24" fill="#E6007A"/>
<path d="M9.102 27.455L8.046 26.41H14.217V28.5H6.748V20.25H9.102V27.455ZM18.3696 28.687C17.3943 28.687 16.5363 28.5073 15.7956 28.148C15.055 27.7887 14.4793 27.2827 14.0686 26.63C13.658 25.9773 13.4526 25.2257 13.4526 24.375C13.4526 23.5243 13.658 22.7727 14.0686 22.12C14.4793 21.4673 15.055 20.9613 15.7956 20.602C16.5363 20.2427 17.3943 20.063 18.3696 20.063C19.345 20.063 20.203 20.2427 20.9436 20.602C21.6843 20.9613 22.26 21.4673 22.6706 22.12C23.0813 22.7727 23.2866 23.5243 23.2866 24.375C23.2866 25.2257 23.0813 25.9773 22.6706 26.63C22.26 27.2827 21.6843 27.7887 20.9436 28.148C20.203 28.5073 19.345 28.687 18.3696 28.687ZM18.3696 26.586C18.8903 26.586 19.3413 26.498 19.7226 26.322C20.104 26.1387 20.3973 25.882 20.6026 25.552C20.808 25.222 20.9106 24.8297 20.9106 24.375C20.9106 23.9203 20.808 23.528 20.6026 23.198C20.3973 22.868 20.104 22.615 19.7226 22.439C19.3413 22.2557 18.8903 22.164 18.3696 22.164C17.849 22.164 17.398 22.2557 17.0166 22.439C16.6353 22.615 16.342 22.868 16.1366 23.198C15.9313 23.528 15.8286 23.9203 15.8286 24.375C15.8286 24.8297 15.9313 25.222 16.1366 25.552C16.342 25.882 16.6353 26.1387 17.0166 26.322C17.398 26.498 17.849 26.586 18.3696 26.586ZM31.8987 24.925C31.8693 25.6143 31.697 26.245 31.3817 26.817C31.0663 27.3817 30.6007 27.8363 29.9847 28.181C29.376 28.5183 28.6353 28.687 27.7627 28.687C26.89 28.687 26.098 28.5183 25.3867 28.181C24.6827 27.8363 24.1217 27.3413 23.7037 26.696C23.293 26.0433 23.0877 25.2697 23.0877 24.375C23.0877 23.473 23.293 22.6993 23.7037 22.054C24.1217 21.4087 24.6937 20.9173 25.4197 20.58C26.153 20.2353 26.9743 20.063 27.8837 20.063C28.771 20.063 29.552 20.2023 30.2267 20.481C30.9013 20.7523 31.4403 21.1337 31.8437 21.625C32.247 22.1163 32.511 22.681 32.6357 23.319H30.2707C30.1607 22.9157 29.893 22.6003 29.4677 22.373C29.0423 22.1383 28.518 22.021 27.8947 22.021C27.3887 22.021 26.9523 22.109 26.5857 22.285C26.2263 22.461 25.9477 22.7287 25.7497 23.088C25.5517 23.44 25.4527 23.869 25.4527 24.375C25.4527 24.8957 25.559 25.3357 25.7717 25.695C25.9843 26.0543 26.2887 26.3257 26.6847 26.509C27.0807 26.6923 27.5537 26.784 28.1037 26.784C28.6317 26.784 29.0973 26.7107 29.5007 26.564C29.9113 26.4173 30.234 26.201 30.4687 25.915C30.7107 25.629 30.8537 25.2843 30.8977 24.881L31.8987 24.925ZM28.2467 24.133H32.7127V28.5H31.0517L30.7217 25.255L31.1617 25.717H28.2467V24.133ZM37.6177 28.687C36.6424 28.687 35.7844 28.5073 35.0437 28.148C34.303 27.7887 33.7274 27.2827 33.3167 26.63C32.906 25.9773 32.7007 25.2257 32.7007 24.375C32.7007 23.5243 32.906 22.7727 33.3167 22.12C33.7274 21.4673 34.303 20.9613 35.0437 20.602C35.7844 20.2427 36.6424 20.063 37.6177 20.063C38.593 20.063 39.451 20.2427 40.1917 20.602C40.9324 20.9613 41.508 21.4673 41.9187 22.12C42.3294 22.7727 42.5347 23.5243 42.5347 24.375C42.5347 25.2257 42.3294 25.9773 41.9187 26.63C41.508 27.2827 40.9324 27.7887 40.1917 28.148C39.451 28.5073 38.593 28.687 37.6177 28.687ZM37.6177 26.586C38.1384 26.586 38.5894 26.498 38.9707 26.322C39.352 26.1387 39.6454 25.882 39.8507 25.552C40.056 25.222 40.1587 24.8297 40.1587 24.375C40.1587 23.9203 40.056 23.528 39.8507 23.198C39.6454 22.868 39.352 22.615 38.9707 22.439C38.5894 22.2557 38.1384 22.164 37.6177 22.164C37.097 22.164 36.646 22.2557 36.2647 22.439C35.8834 22.615 35.59 22.868 35.3847 23.198C35.1794 23.528 35.0767 23.9203 35.0767 24.375C35.0767 24.8297 35.1794 25.222 35.3847 25.552C35.59 25.882 35.8834 26.1387 36.2647 26.322C36.646 26.498 37.097 26.586 37.6177 26.586Z" fill="white"/>
</svg>
