<svg width="32" height="32" viewBox="0 0 32 32" fill="none" xmlns="http://www.w3.org/2000/svg">
<g clip-path="url(#clip0_1031_192)">
<g clip-path="url(#clip1_1031_192)">
<path d="M16 32C24.8366 32 32 24.8366 32 16C32 7.16344 24.8366 0 16 0C7.16344 0 0 7.16344 0 16C0 24.8366 7.16344 32 16 32Z" fill="#FF8C00"/>
<path d="M16.0001 4.50195C11.2458 4.50195 7.36011 8.36481 7.36011 13.142C7.36011 14.102 7.52011 15.0391 7.81725 15.9534C8.02296 16.5705 8.70868 16.9134 9.34868 16.7077C9.96582 16.502 10.3087 15.8162 10.103 15.1762C9.85154 14.4677 9.73725 13.7134 9.76011 12.9591C9.85154 9.73624 12.4572 7.08481 15.6801 6.92481C19.2687 6.74195 22.2401 9.5991 22.2401 13.142C22.2401 16.4562 19.6344 19.1762 16.3658 19.3591C16.3658 19.3591 15.1544 19.4277 14.5601 19.5191C14.263 19.5648 14.0344 19.6105 13.8744 19.6334C13.8058 19.6562 13.7372 19.5877 13.7601 19.5191L13.9658 18.5134L15.0858 13.3477C15.223 12.7077 14.8115 12.0677 14.1715 11.9305C13.5315 11.7934 12.8915 12.2048 12.7544 12.8448C12.7544 12.8448 10.0573 25.4162 10.0344 25.5534C9.89725 26.1934 10.3087 26.8334 10.9487 26.9705C11.5887 27.1077 12.2287 26.6962 12.3658 26.0562C12.3887 25.9191 12.7544 24.2505 12.7544 24.2505C13.0287 22.9705 14.0801 22.0334 15.3144 21.8734C15.5887 21.8277 16.663 21.7591 16.663 21.7591C21.1201 21.4162 24.6401 17.6905 24.6401 13.142C24.6401 8.36481 20.7544 4.50195 16.0001 4.50195ZM16.6172 24.3877C15.8401 24.2277 15.063 24.7077 14.903 25.5077C14.743 26.2848 15.223 27.062 16.023 27.222C16.8001 27.382 17.5772 26.902 17.7372 26.102C17.8972 25.302 17.4172 24.5477 16.6172 24.3877Z" fill="white"/>
</g>
</g>
<defs>
<clipPath id="clip0_1031_192">
<rect width="32" height="32" fill="white"/>
</clipPath>
<clipPath id="clip1_1031_192">
<rect width="32" height="32" fill="white"/>
</clipPath>
</defs>
</svg>
