<svg width="32" height="32" viewBox="0 0 32 32" fill="none" xmlns="http://www.w3.org/2000/svg">
<g clip-path="url(#clip0_1031_1952)">
<path d="M16 32C24.8366 32 32 24.8366 32 16C32 7.16344 24.8366 0 16 0C7.16344 0 0 7.16344 0 16C0 24.8366 7.16344 32 16 32Z" fill="#EEEEEE"/>
<path d="M16 6.5C17.3807 6.5 18.5 5.38071 18.5 4C18.5 2.61929 17.3807 1.5 16 1.5C14.6193 1.5 13.5 2.61929 13.5 4C13.5 5.38071 14.6193 6.5 16 6.5Z" fill="#3E0E32"/>
<path d="M16 12.5C17.3807 12.5 18.5 11.3807 18.5 10C18.5 8.61929 17.3807 7.5 16 7.5C14.6193 7.5 13.5 8.61929 13.5 10C13.5 11.3807 14.6193 12.5 16 12.5Z" fill="#97E7B2"/>
<path d="M10.804 9.5C12.1847 9.5 13.304 8.38071 13.304 7C13.304 5.61929 12.1847 4.5 10.804 4.5C9.42324 4.5 8.30396 5.61929 8.30396 7C8.30396 8.38071 9.42324 9.5 10.804 9.5Z" fill="#3E0E29"/>
<path d="M5.60767 12.5C6.98838 12.5 8.10767 11.3807 8.10767 10C8.10767 8.61929 6.98838 7.5 5.60767 7.5C4.22695 7.5 3.10767 8.61929 3.10767 10C3.10767 11.3807 4.22695 12.5 5.60767 12.5Z" fill="#3CD3D3"/>
<path d="M10.804 15.5C12.1847 15.5 13.304 14.3807 13.304 13C13.304 11.6193 12.1847 10.5 10.804 10.5C9.42324 10.5 8.30396 11.6193 8.30396 13C8.30396 14.3807 9.42324 15.5 10.804 15.5Z" fill="#217391"/>
<path d="M5.60767 18.5C6.98838 18.5 8.10767 17.3807 8.10767 16C8.10767 14.6193 6.98838 13.5 5.60767 13.5C4.22695 13.5 3.10767 14.6193 3.10767 16C3.10767 17.3807 4.22695 18.5 5.60767 18.5Z" fill="#97E7E7"/>
<path d="M5.60767 24.5C6.98838 24.5 8.10767 23.3807 8.10767 22C8.10767 20.6193 6.98838 19.5 5.60767 19.5C4.22695 19.5 3.10767 20.6193 3.10767 22C3.10767 23.3807 4.22695 24.5 5.60767 24.5Z" fill="#3E290E"/>
<path d="M10.804 21.5C12.1847 21.5 13.304 20.3807 13.304 19C13.304 17.6193 12.1847 16.5 10.804 16.5C9.42324 16.5 8.30396 17.6193 8.30396 19C8.30396 20.3807 9.42324 21.5 10.804 21.5Z" fill="#6BD33C"/>
<path d="M10.804 27.5C12.1847 27.5 13.304 26.3807 13.304 25C13.304 23.6193 12.1847 22.5 10.804 22.5C9.42324 22.5 8.30396 23.6193 8.30396 25C8.30396 26.3807 9.42324 27.5 10.804 27.5Z" fill="#0E113E"/>
<path d="M16 30.5C17.3807 30.5 18.5 29.3807 18.5 28C18.5 26.6193 17.3807 25.5 16 25.5C14.6193 25.5 13.5 26.6193 13.5 28C13.5 29.3807 14.6193 30.5 16 30.5Z" fill="#3E290E"/>
<path d="M16 24.5C17.3807 24.5 18.5 23.3807 18.5 22C18.5 20.6193 17.3807 19.5 16 19.5C14.6193 19.5 13.5 20.6193 13.5 22C13.5 23.3807 14.6193 24.5 16 24.5Z" fill="#6BD33C"/>
<path d="M21.196 27.5C22.5768 27.5 23.696 26.3807 23.696 25C23.696 23.6193 22.5768 22.5 21.196 22.5C19.8153 22.5 18.696 23.6193 18.696 25C18.696 26.3807 19.8153 27.5 21.196 27.5Z" fill="#97E7E7"/>
<path d="M26.3923 24.5C27.773 24.5 28.8923 23.3807 28.8923 22C28.8923 20.6193 27.773 19.5 26.3923 19.5C25.0116 19.5 23.8923 20.6193 23.8923 22C23.8923 23.3807 25.0116 24.5 26.3923 24.5Z" fill="#3CD3D3"/>
<path d="M21.196 21.5C22.5768 21.5 23.696 20.3807 23.696 19C23.696 17.6193 22.5768 16.5 21.196 16.5C19.8153 16.5 18.696 17.6193 18.696 19C18.696 20.3807 19.8153 21.5 21.196 21.5Z" fill="#217391"/>
<path d="M26.3923 18.5C27.773 18.5 28.8923 17.3807 28.8923 16C28.8923 14.6193 27.773 13.5 26.3923 13.5C25.0116 13.5 23.8923 14.6193 23.8923 16C23.8923 17.3807 25.0116 18.5 26.3923 18.5Z" fill="#3E0E29"/>
<path d="M26.3923 12.5C27.773 12.5 28.8923 11.3807 28.8923 10C28.8923 8.61929 27.773 7.5 26.3923 7.5C25.0116 7.5 23.8923 8.61929 23.8923 10C23.8923 11.3807 25.0116 12.5 26.3923 12.5Z" fill="#3E0E32"/>
<path d="M21.196 15.5C22.5768 15.5 23.696 14.3807 23.696 13C23.696 11.6193 22.5768 10.5 21.196 10.5C19.8153 10.5 18.696 11.6193 18.696 13C18.696 14.3807 19.8153 15.5 21.196 15.5Z" fill="#97E7B2"/>
<path d="M21.196 9.5C22.5768 9.5 23.696 8.38071 23.696 7C23.696 5.61929 22.5768 4.5 21.196 4.5C19.8153 4.5 18.696 5.61929 18.696 7C18.696 8.38071 19.8153 9.5 21.196 9.5Z" fill="#599121"/>
<path d="M16 18.5C17.3807 18.5 18.5 17.3807 18.5 16C18.5 14.6193 17.3807 13.5 16 13.5C14.6193 13.5 13.5 14.6193 13.5 16C13.5 17.3807 14.6193 18.5 16 18.5Z" fill="#223E0E"/>
</g>
<defs>
<clipPath id="clip0_1031_1952">
<rect width="32" height="32" fill="white"/>
</clipPath>
</defs>
</svg>
