<svg width="20" height="20" viewBox="0 0 20 20" fill="none" xmlns="http://www.w3.org/2000/svg">
<g clip-path="url(#clip0_1095_17345)">
<path d="M10.0033 19.9958C15.5224 19.9958 19.9965 15.5217 19.9965 10.0026C19.9965 4.48347 15.5224 0.00933838 10.0033 0.00933838C4.48414 0.00933838 0.0100098 4.48347 0.0100098 10.0026C0.0100098 15.5217 4.48414 19.9958 10.0033 19.9958Z" fill="#E6007A"/>
<mask id="mask0_1095_17345" style="mask-type:alpha" maskUnits="userSpaceOnUse" x="0" y="0" width="20" height="20">
<path d="M10.0033 19.9958C15.5224 19.9958 19.9965 15.5217 19.9965 10.0026C19.9965 4.48347 15.5224 0.00933838 10.0033 0.00933838C4.48414 0.00933838 0.0100098 4.48347 0.0100098 10.0026C0.0100098 15.5217 4.48414 19.9958 10.0033 19.9958Z" fill="#C4C4C4"/>
</mask>
<g mask="url(#mask0_1095_17345)">
<path d="M30.3894 -0.7901H-3.58759V21.5948H30.3894V-0.7901Z" fill="url(#paint0_linear_1095_17345)"/>
<path d="M-0.366112 -32.3539C0.0551682 -27.3165 2.1189 -22.4773 5.45181 -18.6873C8.87003 -14.8009 13.6054 -12.1832 18.682 -11.2518C21.1831 -10.7914 23.7962 -10.7057 26.3078 -11.1393C28.6968 -11.5515 31.1072 -12.5954 32.4563 -14.7206C33.059 -15.6627 33.4269 -16.7816 33.4109 -17.9058C33.3949 -19.1048 32.8883 -20.1862 32.147 -21.107C31.3258 -22.1293 30.2752 -22.9966 29.2354 -23.7942C28.2062 -24.5811 27.097 -25.2771 25.8865 -25.7535C23.1988 -26.8027 20.5271 -26.2192 17.9515 -25.1324C15.2212 -23.9816 12.5816 -22.6219 9.93656 -21.2997C4.52393 -18.5963 -1.00603 -15.925 -7.01592 -14.8865C-8.52505 -14.6243 -10.0609 -14.4743 -11.5913 -14.4583C-12.9618 -14.4423 -14.4496 -14.4529 -15.7774 -14.8277C-16.364 -14.9936 -16.9666 -15.272 -17.3079 -15.8019C-17.7505 -16.4871 -17.5959 -17.3437 -17.404 -18.0824C-17.0786 -19.3137 -16.4653 -20.4592 -15.6708 -21.4495C-14.0284 -23.4998 -11.698 -24.8595 -9.19697 -25.5714C-7.76782 -25.9783 -6.28534 -26.1871 -4.80287 -26.2674C-3.37372 -26.3423 -1.85392 -26.3958 -0.435436 -26.1603C0.951054 -25.9354 1.91092 -25.0682 2.38553 -23.7513C2.86547 -22.4291 2.78015 -21.0266 2.73216 -19.6455C2.66284 -17.5738 2.83347 -14.6135 5.15851 -13.7677C6.36369 -13.3287 7.80351 -13.7891 8.98201 -14.1317C10.2085 -14.4905 11.403 -14.9615 12.5443 -15.5342C13.7227 -16.1285 14.8426 -16.8297 15.8878 -17.6381C16.7837 -18.3232 17.8236 -19.0942 18.4262 -20.0684C18.8527 -20.759 19.0981 -21.7065 18.3408 -22.2525C18.2982 -22.2846 18.2234 -22.2792 18.1809 -22.2525C15.9891 -20.9089 14.7733 -18.4945 14.3147 -16.0214C13.888 -13.7143 13.8987 -10.8717 15.4398 -8.94991C16.677 -7.4082 19.1033 -6.99601 20.6338 -8.38782C21.3645 -9.05161 21.5938 -10.0741 21.2578 -11.0002C20.8578 -12.0975 19.834 -12.8737 18.7194 -13.1414C17.253 -13.4948 15.7065 -13.0986 14.32 -12.6168C13.0348 -12.1671 11.803 -11.5783 10.6245 -10.8985C8.16613 -9.47987 5.93707 -7.70798 3.66537 -6.01102C1.34568 -4.28195 -1.03802 -2.60641 -3.71501 -1.4769C-6.71729 -0.20285 -9.9862 0.439529 -13.2498 0.396706C-14.7215 0.375294 -16.4013 0.348526 -17.7505 -0.30991C-19.201 -1.02188 -19.6489 -2.53147 -19.281 -4.03036C-18.9291 -5.465 -18.0546 -6.68017 -17.0733 -7.74545C-16.0974 -8.80537 -14.9829 -9.73682 -13.7884 -10.5398C-11.4047 -12.1351 -8.7277 -13.2324 -5.98672 -14.0408C-5.29881 -14.2442 -4.60557 -14.4262 -3.91232 -14.5921C-3.16575 -14.7742 -2.3392 -15.0418 -1.56595 -14.9936C0.177818 -14.8812 0.444454 -12.7828 0.743084 -11.4284C2.07624 -5.44894 2.59351 0.803543 5.12651 6.44576C5.44114 7.15239 5.78777 7.84294 6.17171 8.51209C6.43302 8.97246 6.75297 9.4703 7.31823 9.5613C8.55541 9.74867 9.30731 8.17484 9.67527 7.2541C10.1605 6.03357 10.5712 4.40622 10.2085 3.10005C9.88857 1.95983 8.82204 1.53692 7.72884 1.63863C6.36369 1.76712 5.07318 2.44162 3.83602 2.98228C2.28955 3.65677 0.759079 4.37945 -0.755394 5.12354C-3.76301 6.60101 -6.72796 8.16413 -9.7409 9.6416C-15.7508 12.6127 -22.086 15.2732 -28.8158 15.9851C-30.4316 16.1564 -32.0526 16.2099 -33.6738 16.1296C-33.6205 16.1831 -33.5671 16.2367 -33.5139 16.2902C-33.4712 14.2025 -31.8821 12.5002 -29.9943 11.8096C-27.8986 11.0441 -25.5949 11.6223 -23.7231 12.7089C-21.702 13.8867 -20.1449 15.6586 -18.705 17.4786C-17.3026 19.2558 -15.9427 21.0599 -14.3803 22.7087C-8.61571 28.7738 -1.05402 33.1045 7.09426 34.9567C8.97136 35.3849 11.1044 35.7865 12.7469 34.5016C13.9414 33.5648 14.48 32.05 14.6773 30.5885C14.9066 28.838 14.7146 26.9805 14.1761 25.2996C13.5787 23.4367 12.2935 22.1252 10.2885 21.9753C8.12346 21.8147 5.89442 22.6711 3.83602 23.2172C1.27101 23.8971 -1.28865 24.5769 -3.85366 25.2568C-6.38667 25.9259 -8.91435 26.6005 -11.4474 27.2696C-12.6952 27.6014 -13.9483 27.9333 -15.1962 28.2653C-16.4388 28.5971 -17.6865 29.0093 -18.9504 29.2396C-20.1663 29.4589 -21.1474 28.8916 -21.1955 27.6068C-21.2328 26.6807 -20.9022 25.7653 -20.5022 24.9463C-19.537 22.9709 -18.4492 21.0599 -17.2493 19.2184C-14.7855 15.4283 -11.8526 11.9435 -8.53572 8.8761C-7.7305 8.13202 -6.90393 7.40934 -6.05604 6.71343C-6.1307 6.71343 -6.20535 6.71343 -6.28002 6.71343C-3.69368 8.72622 -3.43238 12.3235 -2.90978 15.316C-2.57382 17.243 -2.15254 19.1595 -1.66195 21.0545C-1.41131 22.0182 -1.13934 22.9763 -0.84605 23.9292C-0.606079 24.7161 -0.398106 25.5566 -0.0248222 26.2899C0.225815 26.777 0.609768 27.2696 1.18569 27.3499C1.74561 27.4301 2.20955 27.0875 2.54018 26.6647C3.02545 26.033 3.32942 25.246 3.66537 24.5287C4.06532 23.6776 4.44926 22.8158 4.81189 21.9485C6.23571 18.5493 7.3769 15.0269 8.21944 11.4403C9.16865 7.37722 9.73392 3.22317 9.9099 -0.95229C9.91523 -1.11288 9.69126 -1.16642 9.61127 -1.03259C7.72884 2.20608 6.8543 5.99611 7.16891 9.7326C7.43022 12.8642 8.67272 16.1939 11.899 17.2538C13.5094 17.7837 15.2692 17.7142 16.9224 17.4357C18.6447 17.1467 20.3352 16.6381 21.9244 15.9155C25.0653 14.4862 27.7797 12.1094 29.2141 8.91893C29.8914 7.41469 30.2806 5.77127 30.2593 4.11715C30.2433 2.68786 29.9873 0.964142 28.8568 -0.0368996C27.561 -1.18783 25.8439 -0.507977 24.6334 0.412766C23.3535 1.38703 22.2817 2.62897 21.4444 3.99937C17.4396 10.5409 18.9167 18.9721 21.1031 25.8831C23.2842 32.7672 26.8837 39.1964 31.6244 44.6351C32.2057 45.3043 32.8083 45.9574 33.4269 46.5945C33.5762 46.7444 33.7788 46.5249 33.6508 46.3696C27.2623 38.2381 20.4525 30.4386 13.2428 23.0245C6.08106 15.6638 -1.46997 8.66733 -9.36228 2.09366C-13.1538 -1.0647 -17.1159 -4.01966 -20.8542 -7.23689C-22.6245 -8.76255 -24.331 -10.3685 -25.8775 -12.1243C-26.6774 -13.0344 -27.4346 -13.9872 -28.1279 -14.9829C-28.4372 -15.4326 -28.7412 -15.8876 -29.0237 -16.3534C-29.1677 -16.5889 -29.3063 -16.8244 -29.4397 -17.06C-29.6424 -17.4132 -29.637 -17.5738 -29.461 -17.9324C-28.4904 -19.881 -25.7868 -20.2451 -23.8724 -20.4378C-21.3341 -20.6894 -18.7744 -20.5555 -16.2627 -20.1113C-11.1967 -19.2173 -6.40266 -17.1616 -1.88592 -14.7474C6.92361 -10.0473 14.912 -3.71987 24.4307 -0.433033C26.6917 0.348526 29.0167 0.942726 31.3898 1.25856C32.5737 1.41916 33.7628 1.51015 34.9573 1.52622C35.4532 1.53158 35.6986 1.63864 35.9439 1.18897C36.1838 0.750011 36.3172 0.257523 36.3545 -0.245674C36.5145 -2.23705 35.3146 -4.12671 33.8374 -5.35793C32.3763 -6.5731 30.5472 -7.26366 28.6861 -7.54202C24.1427 -8.21652 19.8926 -6.36968 15.9572 -4.28195C14.8586 -3.69846 13.7707 -3.0989 12.6722 -2.52077C11.6377 -1.97474 10.0272 -0.79705 8.85403 -1.53043C7.97948 -2.07645 7.77683 -3.31839 7.65953 -4.26054C7.48888 -5.64701 7.38223 -7.04418 7.29157 -8.43601C6.93428 -13.9818 7.0996 -19.5598 7.78751 -25.0736C7.96349 -26.5083 8.18212 -27.9429 8.43275 -29.3669C8.6354 -30.5177 8.77405 -31.7597 9.25399 -32.8411C9.73925 -33.9224 10.7045 -34.6236 11.915 -34.19C13.0775 -33.7725 13.952 -32.7072 14.7679 -31.8239C20.5911 -25.5018 24.5321 -17.3918 31.5124 -12.1779C33.3415 -10.8128 35.4532 -9.45846 37.7517 -9.15333C39.6287 -8.90172 41.7938 -9.54411 42.7963 -11.2732C43.3722 -12.2688 43.3935 -13.4412 43.2709 -14.5547C43.1377 -15.7751 42.8923 -16.9903 42.6203 -18.1895C42.071 -20.5984 41.3085 -22.9537 40.3487 -25.2235C39.3781 -27.5092 38.2049 -29.7041 36.8451 -31.7811C36.8078 -31.84 36.7331 -31.8774 36.6637 -31.856C32.1737 -30.2662 30.5846 -25.3519 28.3342 -21.6208C27.0703 -19.5224 25.3745 -17.4025 23.0816 -16.3962C20.6659 -15.3309 18.0742 -16.0749 16.2878 -17.9486C13.9947 -20.3574 13.4882 -23.7781 13.0402 -26.9311C12.9602 -26.8723 12.8855 -26.808 12.8055 -26.7492C16.8423 -24.9773 18.5221 -20.5341 20.1806 -16.7655C20.6178 -15.7699 21.0658 -14.7795 21.5671 -13.8159C22.1963 -12.6061 22.9163 -11.4498 23.5561 -10.24C24.7399 -7.99705 25.6678 -5.3847 24.9 -2.84195C24.1694 -0.427681 21.967 0.514473 19.8819 1.51551C18.938 1.97054 17.9941 2.46837 17.2263 3.19105C16.3837 3.98332 15.8184 5.01112 15.3598 6.06034C14.416 8.22837 13.7761 10.7872 11.6537 12.1308C10.4538 12.891 9.18999 12.7946 7.93149 12.2219C6.86496 11.74 5.87841 11.1833 4.72657 10.9157C0.513775 9.94674 -4.47758 11.9328 -6.27468 16.0332C-7.31455 18.41 -6.7333 21.0439 -5.63477 23.2922C-4.63223 25.3424 -3.16575 27.1518 -1.43798 28.6345C2.3962 31.9214 7.35023 33.4631 12.3416 33.6344C15.0026 33.7255 17.7222 33.4739 20.3193 32.885C22.3883 32.414 24.4627 31.6538 26.1531 30.3316C27.8276 29.0253 28.9261 27.1625 29.0541 25.0159C29.2141 22.4036 28.0995 19.8769 26.8944 17.6286C25.6199 15.2518 24.1214 12.8642 23.7374 10.1448C23.3855 7.67164 24.1748 5.3002 25.3426 3.14823C26.4785 1.04979 27.9129 -0.861286 29.1181 -2.9169C30.4459 -5.18128 31.2512 -7.61162 31.9231 -10.1437C33.123 -14.6885 34.5147 -20.4753 39.3675 -22.4452C42.1031 -23.5586 45.1054 -22.8146 47.7824 -21.9046C50.1447 -21.1016 52.5231 -20.2344 54.7574 -19.1102C56.8691 -18.0503 58.8743 -16.696 60.3621 -14.833C60.5593 -14.5868 60.8634 -14.3406 60.7354 -14.0354C60.6447 -13.8213 60.474 -13.6178 60.3408 -13.4305C59.9888 -12.9379 59.5889 -12.483 59.1462 -12.0655C58.3196 -11.2785 57.3651 -10.6415 56.3573 -10.1276C54.2669 -9.05696 51.9365 -8.48954 49.6167 -8.22188C46.9505 -7.91139 44.2521 -7.92746 41.5805 -8.21652C36.1092 -8.81072 30.7978 -10.5612 25.8439 -12.9273C23.3855 -14.0997 21.0072 -15.4379 18.7035 -16.8887C16.4744 -18.2966 14.3093 -19.8007 12.0377 -21.139C9.83524 -22.4345 7.51554 -23.58 5.03587 -24.2492C2.96146 -24.8113 -0.00882339 -25.2181 -1.16601 -22.8735C-1.54462 -22.1079 -1.51263 -21.1979 -1.01136 -20.4967C-0.595413 -19.9132 0.0658302 -19.5866 0.727081 -19.3511C2.34821 -18.773 4.56126 -18.6659 5.4678 -16.9583C6.45435 -15.1006 5.62778 -12.8042 6.51834 -10.9092C6.68898 -10.5451 6.8543 -10.1918 7.26491 -10.1169C7.70218 -10.0366 8.15546 -10.0848 8.5874 -10.1758C9.52595 -10.3685 10.5551 -10.9306 11.531 -10.7593C12.8482 -10.5291 12.7469 -9.01414 13.0828 -8.03451C13.3495 -7.26366 14.1067 -6.42322 14.9866 -6.76582C15.1198 -6.81935 15.1519 -7.03883 14.9866 -7.0763C10.9764 -7.98634 6.79563 -7.76686 2.71083 -7.7401C-1.60329 -7.70797 -5.91207 -7.66515 -10.2262 -7.60626C-14.5403 -7.54738 -18.8491 -7.47779 -23.1632 -7.39749C-24.7203 -7.36537 -26.3574 -7.45638 -27.8559 -6.94783C-28.4212 -6.76047 -28.9757 -6.4821 -29.3918 -6.04314C-29.6476 -5.77548 -30.1383 -5.11169 -30.0049 -4.71556C-29.9144 -4.4479 -29.4558 -4.12671 -29.253 -3.92865C-28.9331 -3.61816 -28.6025 -3.32373 -28.2611 -3.03467C-27.6532 -2.52612 -27.008 -2.04969 -26.3414 -1.61608C-24.9443 -0.700691 -23.4458 0.0433998 -21.8993 0.66436C-18.6091 1.98659 -15.1215 2.73068 -11.634 3.2767C-3.37373 4.57216 5.0252 4.69529 13.3602 4.24562C17.5836 4.01544 21.8017 3.64072 26.0092 3.1964C27.6409 3.0251 29.2727 2.78957 30.9152 2.8538C32.307 2.90733 33.8001 3.14287 34.9573 3.96726C35.528 4.3741 35.9545 4.91477 36.2425 5.54644C36.2532 5.4822 36.2585 5.41796 36.2691 5.35372C34.5841 6.70807 32.563 7.49499 30.4886 8.02495C28.2915 8.58703 26.0305 8.94034 23.7801 9.22941C19.0927 9.82897 14.3466 9.9735 9.6326 9.67372C7.2809 9.52384 4.9612 9.20264 2.62551 8.89216C1.84161 8.79045 0.977718 8.7958 0.396458 9.42213C-0.0354843 9.8825 -0.110142 10.5302 -0.0568161 11.1351C0.0178413 11.9542 0.273808 12.7411 0.465786 13.5333C0.705753 14.5397 0.903057 15.7603 -0.334114 16.1296C-1.26733 16.4134 -2.36586 16.2367 -3.32039 16.2045C-4.54691 16.1671 -5.76808 16.1296 -6.99459 16.0922C-12.4553 15.9209 -17.9212 15.7549 -23.3818 15.5836C-23.5365 15.5782 -23.6058 15.8085 -23.4619 15.8833C-18.2091 18.6457 -12.9565 21.4025 -7.70384 24.1647C-5.29348 25.4335 -2.90446 26.8198 -0.355446 27.7941C1.96425 28.6775 4.5346 29.1485 6.94495 28.3402C9.15266 27.6014 10.9391 25.9902 12.5122 24.32C14.16 22.5749 15.6425 20.6691 16.9437 18.6457C19.562 14.5665 21.4337 9.98956 22.3883 5.23061C23.4868 -0.229614 23.4122 -5.82366 23.5294 -11.3695C23.5882 -14.1639 23.7001 -16.9689 24.0414 -19.7473C24.2173 -21.1979 24.4574 -22.6433 24.788 -24.0673C25.0599 -25.2395 25.4172 -26.4226 26.0678 -27.445C26.7237 -28.4675 27.6836 -29.2491 28.8888 -29.49C30.0086 -29.7147 31.1445 -29.3989 31.8484 -28.4675C32.851 -27.1346 32.8937 -25.1272 34.2428 -24.0458C35.8959 -22.7182 38.2103 -24.0351 39.6128 -25.1058C41.2392 -26.3476 42.823 -28.2266 44.9188 -28.6334C45.4254 -28.7298 45.9799 -28.7352 46.4598 -28.5371C47.1585 -28.248 47.3878 -27.6056 47.3984 -26.8937C47.4143 -25.4858 47.2384 -24.0511 47.1051 -22.6486C46.9771 -21.3371 46.9611 -19.8329 46.2838 -18.6659C45.6067 -17.4936 44.2734 -17.0385 43.0843 -16.5728C41.7512 -16.0482 40.4127 -15.5236 39.0794 -14.999C37.837 -14.5119 36.5731 -13.9176 35.2399 -13.7195C33.7842 -13.5001 32.403 -13.9658 31.1072 -14.5975C29.9606 -15.1596 28.8568 -15.8127 27.7903 -16.5085C23.4762 -19.3297 19.7806 -22.9751 15.5999 -25.9783C11.5843 -28.8583 6.85962 -31.2939 1.81495 -31.3367C-0.30212 -31.3529 -2.7658 -31.0906 -4.06163 -29.1955C-5.16016 -27.5896 -5.22416 -25.4751 -5.3788 -23.6015C-5.59743 -20.9838 -6.36001 -18.5159 -6.85061 -15.9464C-7.26655 -13.7409 -7.29855 -11.5408 -6.54131 -9.40493C-5.21882 -5.66842 -1.9979 -2.61177 1.8256 -1.57861C3.93734 -1.00582 6.05439 -1.25742 8.18745 -1.56255C10.4592 -1.88909 13.0615 -2.34946 15.1786 -1.17177C17.3756 0.0541039 18.2021 2.67179 18.0529 5.06465C17.9622 6.4886 17.573 7.87506 17.1036 9.21334C16.7464 10.2412 15.9251 11.5473 16.5384 12.6233C16.773 13.0301 17.1303 13.3621 17.4502 13.694C17.8982 14.1597 18.3462 14.6201 18.8154 15.0643C19.6366 15.8353 20.5165 16.5579 21.5031 17.1093C23.6468 18.303 25.9238 18.2601 28.1902 17.4465C29.3847 17.0183 30.5259 16.4616 31.6884 15.9583C32.9256 15.4231 34.1788 14.9359 35.4532 14.4969C37.9116 13.6458 40.434 12.9767 42.983 12.4842C48.1343 11.4938 53.4297 11.2315 58.6502 11.724C61.226 11.9649 63.7803 12.3932 66.2974 12.9981C66.5 13.0463 66.5853 12.7357 66.3826 12.6875C56.2879 10.2572 45.5427 10.7444 35.7039 14.0686C34.4721 14.4862 33.2562 14.9466 32.0563 15.4497C30.8458 15.9583 29.6673 16.5418 28.4462 17.0075C27.2037 17.4786 25.8812 17.8319 24.5427 17.7356C23.3161 17.6446 22.159 17.1682 21.1352 16.5044C20.1112 15.8459 19.21 15.0161 18.3514 14.1597C17.9782 13.7849 17.6049 13.4049 17.2476 13.0141C17.0289 12.7732 16.8104 12.527 16.7037 12.2111C16.5384 11.7293 16.6931 11.2475 16.8584 10.7925C17.7275 8.40502 18.6608 5.93723 18.3141 3.34629C18.0316 1.2425 16.917 -0.743515 14.9386 -1.64285C12.9495 -2.54753 10.6725 -2.23169 8.5874 -1.93727C6.29969 -1.61608 4.04399 -1.27883 1.77761 -1.92121C-0.254128 -2.49936 -2.10455 -3.66634 -3.5657 -5.19199C-5.02685 -6.71765 -6.10937 -8.61801 -6.58398 -10.6843C-7.16523 -13.2003 -6.61598 -15.7163 -6.01872 -18.1734C-5.70942 -19.4367 -5.39479 -20.6948 -5.22416 -21.9848C-5.08018 -23.034 -5.03217 -24.0939 -4.92552 -25.1432C-4.69623 -27.3005 -4.12563 -29.6559 -1.87525 -30.5017C-0.670071 -30.9513 0.700417 -31.0263 1.98026 -31.0049C3.26542 -30.9781 4.54525 -30.7908 5.79309 -30.4803C8.30478 -29.8486 10.6725 -28.7298 12.8801 -27.3862C17.269 -24.7202 20.9751 -21.107 25.0653 -18.0289C27.0917 -16.5033 29.246 -15.0257 31.5818 -14.014C32.6963 -13.5322 33.8748 -13.2271 35.0959 -13.3716C36.3811 -13.5268 37.5916 -14.0675 38.7862 -14.5385C40.1194 -15.0632 41.4579 -15.5878 42.791 -16.1125C43.8255 -16.5193 44.9561 -16.8779 45.8093 -17.6167C46.7051 -18.3875 47.0251 -19.517 47.185 -20.6466C47.377 -21.9956 47.4837 -23.3606 47.5797 -24.715C47.6277 -25.3841 47.6864 -26.0533 47.697 -26.7224C47.7076 -27.247 47.6544 -27.7823 47.3451 -28.2213C46.8652 -28.9065 45.9639 -29.0778 45.18 -28.9975C43.1696 -28.794 41.5592 -27.1292 40.0767 -25.9034C38.5943 -24.6774 35.7252 -22.6272 34.0561 -24.6507C32.9523 -25.989 32.9629 -27.9964 31.6031 -29.1741C30.1633 -30.4161 27.9129 -29.9022 26.6331 -28.6762C24.9267 -27.0436 24.4574 -24.4633 24.0628 -22.2364C23.0922 -16.7548 23.2202 -11.1715 23.0709 -5.6256C22.9269 -0.21891 22.4362 5.16101 20.6338 10.2893C18.9861 14.9894 16.4317 19.3683 13.1521 23.1048C11.5577 24.9142 9.77658 26.761 7.54221 27.7513C4.9932 28.8755 2.22022 28.4418 -0.30212 27.4783C-2.94711 26.472 -5.42679 25.0105 -7.9278 23.6936C-10.5248 22.3286 -13.1218 20.9635 -15.7188 19.5984C-18.2572 18.2655 -20.7955 16.9326 -23.3339 15.5996C-23.3605 15.7014 -23.3871 15.7977 -23.4138 15.8995C-18.4492 16.0546 -13.4791 16.2045 -8.5144 16.3598C-6.14137 16.4348 -3.74167 16.6167 -1.36864 16.5739C-0.691402 16.5633 0.0924988 16.4668 0.572433 15.9316C1.1057 15.3427 0.972382 14.4916 0.817734 13.7796C0.524441 12.3878 -0.728729 9.34719 1.6763 9.15982C2.19356 9.117 2.72149 9.22941 3.22809 9.30971C3.81468 9.40071 4.40127 9.48101 4.98787 9.55595C6.19838 9.71119 7.41423 9.83432 8.6354 9.92532C13.3815 10.2893 18.1594 10.1983 22.8842 9.65231C25.3959 9.36324 27.9183 8.98851 30.3765 8.3729C32.563 7.82689 34.6907 7.0025 36.4611 5.57856C36.5199 5.53038 36.5145 5.44474 36.4878 5.38585C35.3519 2.90733 32.371 2.47908 29.9446 2.52726C28.2275 2.56474 26.5158 2.82168 24.8147 2.99833C22.7403 3.21246 20.6659 3.40518 18.5915 3.57112C10.3738 4.22957 2.09224 4.44904 -6.12003 3.65678C-9.89555 3.29276 -13.6871 2.75745 -17.3613 1.80994C-20.6408 0.964142 -23.8671 -0.256382 -26.6668 -2.19423C-27.3866 -2.69207 -28.0693 -3.23274 -28.7145 -3.82694C-29.0024 -4.0946 -29.2957 -4.36225 -29.5571 -4.65668C-29.7116 -4.82798 -29.7224 -4.8601 -29.6476 -5.07957C-29.5784 -5.27229 -29.4823 -5.4543 -29.3597 -5.62024C-28.5278 -6.7337 -26.8427 -6.95853 -25.5575 -7.02277C-23.5151 -7.12448 -21.4567 -7.10842 -19.4144 -7.1459C-17.3239 -7.18336 -15.2335 -7.21548 -13.1432 -7.2476C-8.93034 -7.30648 -4.71754 -7.36001 -0.504761 -7.39213C1.58564 -7.4082 3.6707 -7.42426 5.7611 -7.43497C7.7555 -7.44567 9.74992 -7.45102 11.739 -7.26366C12.7948 -7.16195 13.8401 -7.00135 14.8746 -6.76582C14.8746 -6.86753 14.8746 -6.97458 14.8746 -7.0763C13.8987 -6.70158 13.3761 -7.94886 13.2215 -8.69296C13.0828 -9.35139 12.9868 -10.0794 12.4963 -10.5826C11.643 -11.4659 10.3685 -11.0216 9.36064 -10.7272C8.74739 -10.5451 7.96349 -10.2614 7.31823 -10.4327C6.70498 -10.5987 6.50233 -11.7603 6.41701 -12.301C6.20371 -13.6714 6.39569 -15.1006 5.9904 -16.439C5.2385 -18.9121 2.59884 -18.9495 0.577766 -19.7473C-0.680737 -20.245 -1.60328 -21.4013 -0.88871 -22.7824C0.065834 -24.6239 2.35887 -24.5383 4.09198 -24.1529C7.49954 -23.3981 10.5978 -21.6905 13.5255 -19.8436C16.5011 -17.97 19.3914 -15.9732 22.4789 -14.2816C28.6594 -10.9038 35.448 -8.40388 42.4977 -7.80968C45.7879 -7.53132 49.1902 -7.63303 52.4111 -8.39317C55.1947 -9.05162 57.9944 -10.2775 59.9248 -12.4562C60.3781 -12.9701 60.778 -13.5322 61.114 -14.1265C61.1407 -14.1745 61.1459 -14.2442 61.114 -14.287C59.3755 -16.8244 56.7838 -18.5213 54.0376 -19.7901C52.635 -20.4431 51.1899 -20.9945 49.7395 -21.5244C47.9903 -22.1669 46.2252 -22.8199 44.3854 -23.1358C42.663 -23.4302 40.8765 -23.4088 39.2341 -22.7504C37.9489 -22.2311 36.8291 -21.3745 35.9118 -20.3414C33.7575 -17.9164 32.7657 -14.7956 31.955 -11.7121C31.4858 -9.94024 31.0538 -8.15229 30.4086 -6.42857C29.8166 -4.83869 29.0008 -3.37192 28.0995 -1.94262C26.4731 0.632244 24.5427 3.14287 23.6841 6.11387C23.2628 7.56992 23.1615 9.08488 23.4281 10.5784C23.7322 12.2807 24.4681 13.8759 25.2626 15.3963C26.9157 18.5599 29.2141 21.986 28.6008 25.7439C28.0836 28.8862 25.3853 30.84 22.5856 31.8733C19.3754 33.0617 15.7758 33.4311 12.3789 33.324C5.64378 33.1152 -1.28332 30.2137 -4.8402 24.2022C-5.74142 22.6765 -6.45599 20.9528 -6.55732 19.1595C-6.6693 17.2324 -5.92272 15.4659 -4.64289 14.0526C-2.57916 11.7882 0.615093 10.7015 3.62804 11.0655C4.37461 11.1565 5.11585 11.3386 5.81975 11.6169C6.60899 11.9274 7.33956 12.3717 8.1288 12.6875C9.50994 13.239 10.9124 13.0729 12.1017 12.1683C14.6612 10.2197 14.8373 6.79908 16.613 4.31521C18.4048 1.80994 21.7858 1.60117 23.8654 -0.540096C26.0092 -2.75095 25.6519 -6.18232 24.5427 -8.80002C23.8335 -10.4648 22.8575 -11.9905 21.999 -13.575C21.3005 -14.8705 20.7085 -16.2195 20.1166 -17.5684C19.0127 -20.0845 17.9036 -22.7236 16.0212 -24.7684C15.1413 -25.7213 14.1013 -26.4975 12.9122 -27.0168C12.7788 -27.0757 12.6562 -26.9793 12.6775 -26.8348C13.0882 -23.9762 13.5307 -20.9357 15.2959 -18.5589C16.7197 -16.637 18.9328 -15.2881 21.3804 -15.5985C23.7322 -15.893 25.6572 -17.5524 27.0864 -19.3403C28.6542 -21.2997 29.6567 -23.5908 30.8885 -25.7641C32.2537 -28.1731 33.9815 -30.582 36.6904 -31.5402C36.6318 -31.567 36.5678 -31.5884 36.5091 -31.6152C39.3195 -27.3219 41.3245 -22.5201 42.391 -17.4936C42.8923 -15.122 43.7349 -11.9156 41.3779 -10.2668C39.2021 -8.74649 36.4718 -9.51734 34.3387 -10.6897C26.5584 -14.9561 22.2603 -23.2803 16.789 -29.9182C16.0958 -30.764 15.3758 -31.5884 14.6293 -32.3806C13.8934 -33.1622 13.1202 -34.008 12.1123 -34.4309C11.2857 -34.7735 10.3578 -34.6986 9.67527 -34.0829C9.03534 -33.4994 8.72606 -32.6162 8.52341 -31.7918C7.89416 -29.2223 7.56887 -26.5351 7.2809 -23.9066C6.97161 -21.1284 6.79563 -18.3394 6.75297 -15.545C6.7103 -12.7506 6.79563 -9.9563 7.01427 -7.1673C7.11026 -5.94678 7.17425 -4.69414 7.40889 -3.48969C7.56353 -2.69742 7.85683 -1.80879 8.54474 -1.3163C9.37663 -0.722103 10.3685 -1.03794 11.2111 -1.43407C12.3842 -1.9908 13.5201 -2.62783 14.6612 -3.24344C16.9224 -4.46396 19.2047 -5.69518 21.6578 -6.50352C25.5239 -7.77756 30.3392 -7.85786 33.6189 -5.07957C35.2399 -3.70381 36.7492 -1.16642 35.6559 0.964138C35.4905 1.29068 35.2453 1.21574 34.9093 1.21038C34.6214 1.20503 34.3387 1.19968 34.0508 1.18897C33.4269 1.16221 32.803 1.11403 32.1843 1.04979C30.9632 0.921314 29.7474 0.712543 28.5529 0.439529C18.6768 -1.79274 10.3898 -7.99169 1.79362 -13.0183C-2.61649 -15.5985 -7.21856 -17.9592 -12.1246 -19.4314C-14.487 -20.1379 -16.9133 -20.6305 -19.377 -20.8072C-21.67 -20.9677 -24.1123 -20.9357 -26.352 -20.3628C-27.216 -20.1433 -28.0799 -19.8061 -28.7891 -19.2547C-29.0985 -19.0138 -29.3757 -18.7354 -29.5944 -18.4089C-29.7543 -18.1681 -30.0689 -17.6649 -30.0209 -17.3597C-29.9782 -17.1188 -29.7224 -16.8137 -29.5996 -16.6049C-29.461 -16.3694 -29.317 -16.1339 -29.1731 -15.9036C-28.8531 -15.3951 -28.5171 -14.8973 -28.1652 -14.4101C-27.52 -13.5162 -26.8267 -12.6543 -26.0962 -11.8245C-22.9445 -8.25935 -19.169 -5.33117 -15.4575 -2.39229C-7.33055 3.99937 0.423119 10.8086 7.79818 18.0246C15.1413 25.214 22.1164 32.7833 28.6701 40.706C30.2806 42.6491 31.8643 44.6191 33.4269 46.6051C33.5015 46.5302 33.5762 46.4552 33.6508 46.3804C28.9688 41.525 25.2466 35.765 22.7349 29.4965C21.4871 26.381 20.5325 23.1423 19.9086 19.8393C19.1994 16.0761 18.9328 12.1201 19.9353 8.38897C20.7565 5.33231 22.4736 2.27031 25.1399 0.460945C25.9132 -0.0636635 26.8677 -0.491917 27.8116 -0.240322C28.6062 -0.0261955 29.1395 0.675072 29.4487 1.39775C30.0832 2.87521 30.0513 4.67387 29.7474 6.22629C29.1021 9.54525 27.0011 12.3932 24.2334 14.2721C21.535 16.1028 18.1221 17.2592 14.8586 17.3341C13.1949 17.3715 11.451 17.0451 10.1392 15.953C8.90736 14.9305 8.20345 13.4209 7.82484 11.8846C6.99827 8.51744 7.42488 4.80235 8.68339 1.60117C9.01935 0.750011 9.42462 -0.0690193 9.88324 -0.861286C9.78192 -0.88805 9.68592 -0.914818 9.58461 -0.941586C9.28598 6.14599 7.84616 13.1747 5.32915 19.8073C4.67857 21.5256 3.94799 23.2172 3.15344 24.8714C2.83881 25.5298 2.51886 26.4772 1.86827 26.8894C1.02571 27.4247 0.407124 26.5469 0.11916 25.8509C-0.568748 24.1808 -1.00603 22.35 -1.45397 20.6049C-1.91792 18.8008 -2.3072 16.9755 -2.62183 15.1446C-3.14442 12.1255 -3.44838 8.5228 -6.05604 6.49395C-6.1307 6.43507 -6.21069 6.43507 -6.28002 6.49395C-9.73024 9.32576 -12.8232 12.5698 -15.4949 16.1511C-16.844 17.955 -18.0758 19.8447 -19.1957 21.8039C-19.7556 22.7836 -20.2835 23.7793 -20.7742 24.791C-21.1315 25.5244 -21.4141 26.3006 -21.494 27.1197C-21.558 27.7995 -21.4621 28.5543 -20.9768 29.0682C-20.3316 29.7534 -19.3556 29.6838 -18.5184 29.4857C-15.9587 28.8808 -13.4205 28.1367 -10.8768 27.4623C-5.78407 26.1079 -0.691402 24.7589 4.40127 23.4045C6.50767 22.8478 9.00868 21.8361 11.2004 22.457C13.4188 23.0887 14.08 25.5458 14.3414 27.58C14.5599 29.293 14.5013 31.1988 13.7175 32.7726C13.3441 33.522 12.7948 34.1697 12.059 34.5767C10.9658 35.1816 9.69126 35.128 8.49675 34.9246C4.25197 34.1911 0.0871658 32.5906 -3.68301 30.5296C-7.46919 28.4633 -10.9407 25.8241 -13.9377 22.7194C-15.5055 21.092 -16.876 19.3201 -18.2624 17.5429C-19.6437 15.7763 -21.1154 14.0366 -23.0032 12.7892C-24.7043 11.6651 -26.7733 10.921 -28.8318 11.1994C-30.5382 11.4296 -32.1754 12.4252 -33.1032 13.8867C-33.5671 14.6093 -33.8178 15.4337 -33.8337 16.2955C-33.8337 16.3866 -33.7591 16.4508 -33.6738 16.4562C-21.2861 17.0343 -10.3968 10.1448 0.343132 4.96294C1.69762 4.30985 3.05744 3.67819 4.4386 3.084C5.63845 2.57008 6.99295 1.85276 8.3421 1.95983C10.1872 2.10971 10.1285 4.11715 9.86191 5.50897C9.73393 6.17811 9.53128 6.83655 9.25399 7.45752C8.95535 8.13202 8.51274 9.02063 7.73418 9.22941C6.89162 9.45424 6.48101 8.42109 6.16638 7.83223C5.81975 7.17915 5.4998 6.50466 5.2065 5.82481C4.65191 4.52399 4.20396 3.1857 3.82001 1.826C3.05211 -0.898758 2.55618 -3.68775 2.04957 -6.47139C1.78828 -7.89534 1.52698 -9.32463 1.22835 -10.7432C0.98838 -11.8888 0.8284 -13.211 0.204479 -14.2281C-0.462101 -15.3255 -1.57662 -15.4112 -2.73913 -15.1756C-3.98698 -14.9241 -5.22948 -14.5921 -6.44533 -14.2228C-8.92501 -13.468 -11.3567 -12.4616 -13.5485 -11.059C-15.5695 -9.76894 -17.5906 -8.07199 -18.8063 -5.96819C-19.8836 -4.11065 -20.3102 -1.43943 -18.1665 -0.160027C-17.148 0.450237 -15.9054 0.573357 -14.7482 0.66436C-13.2764 0.776779 -11.7886 0.750011 -10.3222 0.589417C-7.52785 0.278934 -4.79754 -0.513332 -2.2752 -1.77133C0.0445023 -2.92761 2.14557 -4.45325 4.21463 -6.00567C6.27303 -7.55273 8.30478 -9.14262 10.5232 -10.4541C11.6697 -11.134 12.8642 -11.7335 14.1173 -12.1939C15.4825 -12.6972 17.0077 -13.1468 18.4688 -12.8631C19.786 -12.6061 21.1458 -11.5301 21.1031 -10.0634C21.0712 -9.0195 20.2499 -8.28611 19.306 -8.00775C18.2982 -7.70797 17.1463 -7.85252 16.3197 -8.52165C15.3652 -9.28716 14.848 -10.4488 14.608 -11.6211C14.1013 -14.0729 14.5332 -16.8993 15.7118 -19.0995C15.9785 -19.5973 16.2878 -20.0737 16.6503 -20.5021C17.013 -20.9357 17.5676 -21.6048 18.1062 -21.8135C18.3035 -21.8884 18.3141 -21.9098 18.4475 -21.6957C18.5275 -21.5673 18.5382 -21.3853 18.5328 -21.2354C18.5167 -20.9195 18.3835 -20.6091 18.2342 -20.3414C17.8982 -19.7419 17.3596 -19.2815 16.853 -18.8318C14.7786 -16.985 12.3256 -15.5664 9.70193 -14.6832C9.10467 -14.4851 8.49675 -14.3084 7.87816 -14.1639C7.07294 -13.9765 6.19838 -13.7731 5.38781 -14.0301C4.13464 -14.4262 3.44673 -15.7431 3.19077 -16.9529C2.64684 -19.5706 3.77735 -22.4881 2.19356 -24.8809C1.56431 -25.8391 0.615097 -26.337 -0.504761 -26.4975C-1.90724 -26.6956 -3.37906 -26.6688 -4.79221 -26.5885C-9.77824 -26.3208 -15.2282 -24.2653 -17.3079 -19.3189C-17.7346 -18.3072 -18.1985 -16.9369 -17.7025 -15.8662C-17.276 -14.9455 -16.2468 -14.56 -15.3135 -14.3887C-12.5193 -13.8641 -9.51693 -14.1051 -6.73328 -14.6029C-0.643406 -15.6949 4.95587 -18.4411 10.4432 -21.1872C13.2215 -22.5737 15.9945 -24.0565 18.9007 -25.1646C20.3032 -25.6999 21.7804 -26.0961 23.2949 -26.0104C24.7614 -25.9302 26.1585 -25.3895 27.417 -24.6507C28.6115 -23.9494 29.7047 -23.0716 30.7286 -22.1347C31.7791 -21.1765 32.7816 -20.0417 33.0429 -18.5909C33.5389 -15.7966 31.4271 -13.3287 29.0382 -12.2635C26.5318 -11.1393 23.5561 -11.0269 20.8578 -11.2732C18.1008 -11.5194 15.3812 -12.2742 12.8855 -13.4734C8.02747 -15.8073 4.16131 -19.8329 1.94292 -24.7524C0.860397 -27.1506 0.193821 -29.7255 -0.0248222 -32.3486C-0.062149 -32.5573 -0.382111 -32.5573 -0.366112 -32.3539Z" fill="#E6007A"/>
</g>
<path d="M6.93372 13.768H8.98116L9.63392 11.401C9.72393 11.0746 10.1829 11.0748 10.2726 11.4012L10.9231 13.768H12.9666L14.5335 7.71533H12.6149L12.125 10.1174C12.0538 10.4662 11.5631 10.4758 11.4786 10.1301L10.8879 7.71533H9.01633L8.44094 10.1451C8.35879 10.492 7.86708 10.4853 7.79427 10.1362L7.62148 9.30789C7.42788 8.37977 6.61603 7.71533 5.67557 7.71533H5.37079L6.93372 13.768Z" fill="white"/>
</g>
<defs>
<linearGradient id="paint0_linear_1095_17345" x1="-2.78029" y1="9.76278" x2="32.4604" y2="9.73195" gradientUnits="userSpaceOnUse">
<stop stop-color="#F79420" stop-opacity="0.92"/>
<stop offset="1" stop-color="#C4C4C4" stop-opacity="0"/>
</linearGradient>
<clipPath id="clip0_1095_17345">
<rect width="20" height="20" fill="white"/>
</clipPath>
</defs>
</svg>
